<?xml version="1.0" encoding="UTF-8" standalone="no"?>
<!DOCTYPE svg PUBLIC "-//W3C//DTD SVG 1.1//EN" "http://www.w3.org/Graphics/SVG/1.1/DTD/svg11.dtd">
<svg width="100%" height="100%" viewBox="0 0 1084 362" version="1.1" xmlns="http://www.w3.org/2000/svg" xmlnsXlink="http://www.w3.org/1999/xlink" xmlSpace="preserve" xmlnshref="http://www.serif.com/" style="fill-rule:evenodd;clip-rule:evenodd;stroke-linejoin:round;stroke-miterlimit:2;">
    <g transform="matrix(1,0,0,1,-1.6124,-309.055)">
        <g>
            <g transform="matrix(1,0,0,1,1.35761,309.055)">
                <path d="M1083.76,360.56C1060.28,259.286 993.256,167.783 894.306,101.924C795.356,36.065 670.724,0.006 542.03,0C413.336,-0.006 288.699,36.043 189.74,101.893C90.781,167.744 23.743,259.24 0.255,360.512L3.692,361.023C27.031,260.393 93.644,169.477 191.975,104.045C290.306,38.612 414.152,2.792 542.03,2.798C669.907,2.803 793.749,38.634 892.071,104.075C990.393,169.516 1056.99,260.439 1080.32,361.07L1083.76,360.56Z" style="fill:rgb(49,184,157);fill-rule:nonzero;"/>
            </g>
            <g transform="matrix(1,0,0,1,1.35761,309.055)">
                <path d="M318.73,38.927L310.831,49.239L305.849,37.242L318.73,38.927Z" style="fill:rgb(49,184,157);fill-rule:nonzero;"/>
            </g>
            <g transform="matrix(1,0,0,1,1.35761,309.055)">
                <path d="M778.765,44.163L765.821,45.262L771.341,33.503L778.765,44.163Z" style="fill:rgb(49,184,157);fill-rule:nonzero;"/>
            </g>
            <g transform="matrix(1,0,0,1,1.35761,309.055)">
                <path d="M1033.63,245.623L1021.94,239.963L1032.69,232.667L1033.63,245.623Z" style="fill:rgb(49,184,157);fill-rule:nonzero;"/>
            </g>
            <g transform="matrix(1,0,0,1,1.35761,309.055)">
                <path d="M57.148,235.62L55.335,248.483L45.102,240.481L57.148,235.62Z" style="fill:rgb(49,184,157);fill-rule:nonzero;"/>
            </g>
        </g>
    </g>
</svg>
