<?xml version="1.0" encoding="UTF-8"?>
<svg fill="#FF9700" width="100pt" height="100pt" version="1.1" viewBox="0 0 100 100" xmlns="http://www.w3.org/2000/svg">
 <g>
  <path d="m50 18.047c1.1719 0 3.9844-1.0938 5.8594-6.4844 0.625-1.7969 0.85938-3.6719 0.625-5.4688-0.625-4.4531-3.5156-5.4688-6.4844-5.4688s-5.8594 0.9375-6.4844 5.4688c-0.23438 1.875 0 3.75 0.625 5.4688 1.875 5.3906 4.6875 6.4844 5.8594 6.4844z"/>
  <path d="m39.922 36.719c2.9688 0.70312 6.875 1.0156 10.078 1.0156s7.0312-0.39062 10.078-1.0156c1.0938-0.23438 1.875-1.25 1.875-2.3438v-13.594c0-1.3281-1.0938-2.4219-2.4219-2.4219h-3.9844c-1.7969 2.0312-3.8281 2.8125-5.5469 2.8125-1.6406 0-3.6719-0.85938-5.5469-2.8125h-3.9844c-1.3281 0-2.4219 1.0938-2.4219 2.4219v13.594c0 1.1719 0.78125 2.1094 1.875 2.3438z"/>
  <path d="m11.562 55.547h12.188l2.6562-12.578c0-0.078125 0.078125-0.23438 0.078125-0.3125 0-5-3.4375-9.2188-7.9688-10.391 2.1875-1.0938 3.6719-3.2812 3.6719-5.8594 0-3.5938-2.8906-6.4844-6.4844-6.4844s-6.4844 2.8906-6.4844 6.4844c0 2.2656 1.1719 4.2969 2.9688 5.4688h-0.54688c-1.3281 0-2.4219 1.0938-2.4219 2.4219v18.828c-0.078125 1.3281 0.9375 2.4219 2.3438 2.4219z"/>
  <path d="m10.234 71.172c2.1875-1.0938 3.5938-3.2812 3.5938-5.8594 0-3.5938-2.8906-6.4844-6.4844-6.4844s-6.4844 2.8906-6.4844 6.4844c0 2.2656 1.1719 4.2969 2.9688 5.4688h-0.54688c-1.3281 0-2.4219 1.0938-2.4219 2.4219v18.828c0 1.3281 1.0938 2.4219 2.4219 2.4219h12.188l2.8125-13.125c-0.15625-4.8438-3.5156-8.9062-8.0469-10.156z"/>
  <path d="m69.766 43.672c-0.23438-1.0938-1.25-1.9531-2.3438-1.9531h-34.844c-1.1719 0-2.1094 0.78125-2.3438 1.9531l-11.172 52.734c-0.15625 0.70312 0 1.4844 0.46875 2.0312s1.1719 0.85938 1.875 0.85938h57.266c0.70312 0 1.4062-0.3125 1.875-0.85938s0.625-1.3281 0.46875-2.0312zm-45.391 50.859 10.156-47.891h30.859l10.156 47.891z"/>
  <path d="m76.25 55.547h12.188c1.3281 0 2.4219-1.0938 2.4219-2.4219v-18.906c0-1.3281-1.0938-2.4219-2.4219-2.4219h-0.54688c1.7969-1.1719 2.9688-3.2031 2.9688-5.4688 0-3.5938-2.8906-6.4844-6.4844-6.4844s-6.4844 2.8906-6.4844 6.4844c0 2.5781 1.4844 4.7656 3.6719 5.8594-4.6094 1.25-7.9688 5.4688-7.9688 10.391 0 0.078125 0.078125 0.23438 0.078125 0.3125z"/>
  <path d="m96.719 70.781h-0.54688c1.7969-1.1719 2.9688-3.2031 2.9688-5.4688 0-3.5938-2.8906-6.4844-6.4844-6.4844s-6.4844 2.8906-6.4844 6.4844c0 2.5781 1.4844 4.7656 3.5938 5.8594-4.5312 1.25-7.8906 5.3125-7.9688 10.234l2.8125 13.125h12.188c1.3281 0 2.4219-1.0938 2.4219-2.4219v-18.906c-0.078125-1.3281-1.1719-2.4219-2.5-2.4219z"/>
 </g>
</svg>
