<?xml version="1.0" encoding="UTF-8"?>
<svg fill="#FF9700" width="100pt" height="100pt" version="1.1" viewBox="0 0 100 100" xmlns="http://www.w3.org/2000/svg">
 <g>
  <path d="m57.812 81.25v-1.5625h-1.7852c-0.67188 0-1.3438 0.09375-1.9883 0.28125l-0.21484 0.0625-2.1328 0.61328c-0.36719 0.10547-0.74219 0.16016-1.125 0.16016-0.30469 0-0.60547-0.035157-0.92969-0.10938l-7.4023-1.5469c-0.42188-0.085938-0.72656-0.46484-0.72656-0.89063 0-0.50391 0.41016-0.91406 0.91016-0.91406h4.0078c1.4609 0 2.918-0.19141 4.3281-0.57031 0.41797-0.11328 0.66406-0.53906 0.55078-0.95703-0.11328-0.41797-0.53906-0.66406-0.95703-0.55078-0.9375 0.25391-1.8945 0.41016-2.8633 0.48047v-0.070313c0-0.46875 0.3125-0.89062 0.76172-1.0195l3.0391-0.89844c0.52344-0.15625 1.0586-0.25391 1.5977-0.3125 0.30859-0.03125 0.62109-0.054687 0.93359-0.054687 0.45312 0 0.91016 0.035156 1.3555 0.10156l2.6406 0.40234v-1.25c0-0.11328 0.03125-0.21875 0.074219-0.31641 0.10938-0.24609 0.33984-0.42969 0.625-0.46094l10.238-1.0742v-21.164c-0.69922-0.16406-1.3438-0.50781-1.8633-1.0312l-5.6328-5.6289h-0.95703c-4.1172 0-8.0703 1.625-10.996 4.5234l-9.1719 9.0898c-1.3594 1.3477-3.168 2.1484-5.082 2.25l-12.391 0.66016v1.1016l-2.3945-0.36719c-0.52734-0.082031-1.0625-0.12109-1.5938-0.12109-1.0039 0-2.0078 0.14453-2.9766 0.42969l-3.0391 0.89844c-1.1172 0.32812-1.8828 1.3555-1.8828 2.5195l-0.003906 0.10938h-3.5039c-1.3672 0-2.4727 1.1094-2.4727 2.4727 0 1.1719 0.82031 2.1836 1.9688 2.4219l7.4023 1.5469c0.41016 0.09375 0.83203 0.14062 1.25 0.14062 0.52344 0 1.0508-0.074219 1.5586-0.21875l2.3477-0.67578c0.50391-0.14453 1.0273-0.21875 1.5547-0.21875h1.7852v1.5625h13.73c3.4453 0 6.8477-0.75781 9.9688-2.2266l5.1641-2.4258c0 2.2422 0.33984 4.0625 0.79297 5.4922-0.49219 0.070312-0.98438 0.17969-1.4648 0.32031l-3.0391 0.89844c-1.1172 0.32812-1.8828 1.3555-1.8828 2.5195l-0.003906 0.10938h-3.5039c-1.3672 0-2.4727 1.1094-2.4727 2.4727 0 1.1719 0.82031 2.1836 1.9688 2.4219l7.4023 1.5469c0.41016 0.09375 0.83203 0.14062 1.25 0.14062 0.52344 0 1.0508-0.074219 1.5586-0.21875l1.3477-0.38672-1.9062 9.3359c-0.19922 0.96875 0.54297 1.875 1.5312 1.875h15.652v-10.938h-10.156c-0.42969 0-0.78125-0.35156-0.78125-0.78125zm-42.402-12.164c-0.30469 0-0.60547-0.035157-0.92969-0.10938l-7.4023-1.5469c-0.42188-0.085938-0.72656-0.46484-0.72656-0.89063 0-0.50391 0.41016-0.91406 0.91016-0.91406h4.1641c1.4609 0 2.918-0.19141 4.3281-0.57031 0.41797-0.11328 0.66406-0.53906 0.55078-0.95703-0.11328-0.41797-0.53906-0.66406-0.95703-0.55078-0.98828 0.26562-2 0.42969-3.0195 0.48828v-0.078125c0-0.46875 0.3125-0.89062 0.76172-1.0195l3.0391-0.89844c0.82422-0.24219 1.6758-0.36719 2.5352-0.36719 0.45313 0 0.91016 0.035156 1.3555 0.10156l2.6367 0.40234v5.793h-1.7852c-0.67188 0-1.3438 0.09375-1.9883 0.28125l-2.3477 0.67578c-0.36719 0.10547-0.74609 0.16016-1.125 0.16016z"/>
  <path d="m89.516 73.211 0.011719-0.23828-6.4648 6.5156c-1.6016 1.6172-3.8242 2.543-6.0977 2.543h-6.6523v10.938h18.984c0.91406 0 1.6367-0.78516 1.5586-1.6953l-1.2812-14.906c-0.089844-1.0508-0.10938-2.1055-0.058594-3.1562z"/>
  <path d="m49.074 24.559c1.9062 0 3.6836-0.36719 5.3008-1.0391-1.1992 0.94531-2.3906 1.4258-3.082 1.4258-1.293 0-2.3438 1.0508-2.3438 2.3438 0 1.293 1.0508 2.3438 2.3438 2.3438 1.082 0 2.3711-0.34375 3.6875-0.99219 0 0.003906 0 0.007813 0.003906 0.007813-1.4531 1.3984-3.2773 2.2266-5.207 2.2266-1.293 0-2.3438 1.0508-2.3438 2.3438s1.0508 2.3438 2.3438 2.3438c2.1562 0 4.2148-0.625 6.0391-1.7148-0.86719 0.9375-1.9062 1.4141-3.1016 1.8555-1.2148 0.44922-1.832 1.7969-1.3828 3.0117 0.35156 0.94531 1.2461 1.5312 2.1992 1.5312 0.26953 0 0.54688-0.046875 0.8125-0.14844 2.1094-0.78125 3.918-1.8086 5.3477-3.5703 2.4492 2.0664 5.6055 3.3164 9.0586 3.3164 5.4062 0 10.09-3.0547 12.445-7.5234 0.26953 1.7383 0.45703 3.5898 0.45703 5.4102 0 1.293 1.0508 2.3438 2.3438 2.3438 1.293 0 2.3438-1.0508 2.3438-2.3438 0-3.25-0.50781-6.543-1.082-9.2227 0.92969 0.66797 2.0352 1.2656 3.3711 1.7227 0.25 0.085937 0.50391 0.125 0.75781 0.125 0.97656 0 1.8867-0.61328 2.2188-1.5859 0.41797-1.2266-0.23828-2.5586-1.4609-2.9766-4.2227-1.4414-4.8555-5-4.875-5.125-0.015625-0.125-0.042969-0.24609-0.082031-0.36719-2.2148-7.1875-9.7031-9.9219-12.266-10.664-1.0938-1.8633-3.2617-3.6602-7.3281-3.6602-4.8047 0-7.082 2.5117-8.9141 4.5273-1.625 1.7891-2.6953 2.9727-5.3867 2.9727-1.293 0-2.3438 1.0508-2.3438 2.3438 0 1.293 1.0508 2.3438 2.3438 2.3438 1.5469 0 2.8281-0.26562 3.918-0.69141-1.5664 1.543-3.6641 2.3945-6.1328 2.3945-1.293 0-2.3438 1.0508-2.3438 2.3438-0.003906 1.2969 1.0469 2.3477 2.3398 2.3477zm31.605 4.9531c-1.5898 5.0742-6.3359 8.7695-11.93 8.7695-3.1172 0-5.9609-1.1523-8.1523-3.0469-1.0078-0.87109-1.8672-1.8984-2.5586-3.043-0.23437-0.39062-0.44922-0.79297-0.64062-1.2109-0.45703-0.99609-0.78516-2.0625-0.96875-3.1797-0.042969-0.25391-0.089844-0.5-0.11328-0.75781-0.042968-0.41406-0.066406-0.83594-0.066406-1.2617 0-0.4375 0.023438-0.86719 0.066406-1.293 0.44141-0.011719 0.86719-0.035156 1.2773-0.074219 0.99219-0.09375 1.9062-0.25781 2.7344-0.49219 0.83203-0.23438 1.582-0.53125 2.2656-0.88281 3.2812-1.6836 4.9062-4.5547 5.6992-7.1992 0.41797 1.9492 1.375 4.125 3.5391 5.1367 1.2617 0.58984 2.2461 1.6289 2.6445 2.9648 0.65234 2.1875 2.2617 5.1914 6.2031 5.5469h0.011718c-0.007812 0.011719-0.007812 0.015625-0.011718 0.023438z"/>
  <path d="m21.875 11.336c0.42969 0 0.78125-0.35156 0.78125-0.78125v-2.3438c0-0.42969-0.35156-0.78125-0.78125-0.78125s-0.78125 0.35156-0.78125 0.78125v2.3438c0 0.43359 0.35156 0.78125 0.78125 0.78125z"/>
  <path d="m27.074 12.5c0.09375 0.039062 0.19531 0.054688 0.28906 0.054688 0.30859 0 0.60156-0.1875 0.72656-0.49219l0.87109-2.1758c0.16016-0.40234-0.035157-0.85547-0.43359-1.0156-0.39844-0.16016-0.85547 0.035156-1.0156 0.43359l-0.87109 2.1758c-0.16016 0.40234 0.035156 0.85547 0.43359 1.0195z"/>
  <path d="m31.496 15.117c0.22656 0 0.45312-0.097657 0.60547-0.28906l1.4766-1.8203c0.27344-0.33594 0.22266-0.82812-0.11328-1.0977-0.33594-0.26953-0.82812-0.22266-1.0977 0.11328l-1.4766 1.8203c-0.27344 0.33594-0.22266 0.82812 0.11328 1.0977 0.14453 0.12109 0.32031 0.17578 0.49219 0.17578z"/>
  <path d="m15.438 12.062c0.12109 0.30469 0.41406 0.49219 0.72656 0.49219 0.097657 0 0.19531-0.019532 0.28906-0.054688 0.40234-0.16016 0.59375-0.61719 0.43359-1.0156l-0.87109-2.1758c-0.16016-0.39844-0.61328-0.59375-1.0156-0.43359s-0.59375 0.61719-0.43359 1.0156z"/>
  <path d="m11.426 14.828c0.15625 0.19141 0.37891 0.28906 0.60547 0.28906 0.17188 0 0.34766-0.058594 0.49219-0.17578 0.33594-0.27344 0.38672-0.76562 0.11328-1.0977l-1.4766-1.8203c-0.27344-0.33594-0.76562-0.38672-1.0977-0.11328-0.33594 0.27344-0.38672 0.76562-0.11328 1.0977z"/>
  <path d="m10.059 31.586 2.7031 5.8594c0.625 1.3516 1.0898 2.7734 1.3906 4.2305l0.55469 2.7188c0.20312 0.98438 1.0781 1.6992 2.082 1.6992h9.9062c1.0039 0 1.8789-0.71484 2.082-1.6992l0.55859-2.7188c0.29687-1.457 0.76562-2.8828 1.3906-4.2305l2.7031-5.8594c0.015624-0.039063 0.03125-0.078126 0.042968-0.11719 0.67188-1.582 1.0117-3.2539 1.0117-4.9688 0-3.5156-1.4023-6.7891-3.9453-9.2148-2.543-2.4258-5.8867-3.6719-9.4023-3.5078-6.3867 0.29688-11.586 5.3281-12.094 11.699-0.16406 2.082 0.16406 4.1016 0.97656 6.0117 0.011719 0.03125 0.023438 0.066407 0.039063 0.097657zm10.367 12.945-4.1055-18.344 3.5312 2.0273c0.58594 0.33594 1.2422 0.50391 1.8984 0.50391 0.65234 0 1.3086-0.16797 1.8945-0.5l3.5508-2.0352-4.1133 18.348zm-9.8242-18.934c0.4375-5.5 5.0938-10.008 10.605-10.262 3.0898-0.14063 6.0195 0.94922 8.25 3.0781 2.2305 2.1289 3.4609 5 3.4609 8.0859 0 1.5391-0.3125 3.0352-0.92578 4.4492-0.011719 0.027343-0.023438 0.054687-0.03125 0.082031l-2.6562 5.7578c-0.67188 1.4609-1.1797 2.9961-1.5 4.5742l-0.55859 2.7188c-0.054688 0.26172-0.28516 0.44922-0.55078 0.44922h-2.0117l4.418-19.738c0.007813-0.039063 0-0.078125 0.003907-0.11719 0.003906-0.054687 0.011719-0.10938 0.003906-0.16797-0.007813-0.058593-0.035156-0.11328-0.054687-0.16797-0.015626-0.035156-0.015626-0.074219-0.035157-0.10547-0.003906-0.003906-0.007812-0.007813-0.011719-0.011719-0.03125-0.050781-0.074218-0.089844-0.11719-0.13672-0.027344-0.03125-0.050781-0.066407-0.085937-0.089844-0.035157-0.023438-0.074219-0.035156-0.11328-0.054688-0.054687-0.027344-0.10547-0.058594-0.16406-0.074218-0.007813 0-0.011719-0.007813-0.015625-0.007813-0.039063-0.007813-0.074219 0-0.11328-0.003906-0.058594-0.003907-0.11719-0.011719-0.17578-0.003907-0.050781 0.007813-0.097656 0.03125-0.14453 0.046876-0.042969 0.015624-0.085937 0.019531-0.125 0.042968l-5.0898 2.9141c-0.69141 0.39453-1.5469 0.39453-2.2383 0l-5.0703-2.9141c-0.039063-0.023437-0.085938-0.027344-0.12891-0.042968-0.046875-0.015626-0.089843-0.039063-0.14062-0.046876-0.058594-0.007812-0.11719 0-0.17578 0.003907-0.039063 0.003906-0.074219-0.007813-0.11328 0-0.007813 0-0.011719 0.007812-0.015625 0.007812-0.054688 0.011719-0.10156 0.042969-0.15234 0.070313-0.039063 0.019531-0.085937 0.03125-0.12109 0.058594-0.03125 0.023437-0.054687 0.058593-0.082031 0.085937-0.042969 0.042969-0.089844 0.085937-0.12109 0.14062-0.003906 0.003906-0.007812 0.007812-0.011718 0.011719-0.019532 0.035156-0.023438 0.070312-0.035157 0.10547-0.023437 0.054687-0.046875 0.10547-0.054687 0.16406-0.007813 0.058594 0 0.11328 0.003906 0.16797 0.003906 0.039062-0.007812 0.078125 0.003906 0.11719l4.4141 19.746h-2.0312c-0.26562 0-0.49609-0.1875-0.55078-0.44922l-0.55469-2.7188c-0.32422-1.5742-0.82812-3.1133-1.5-4.5742l-2.668-5.7773c-0.007812-0.023438-0.015625-0.042969-0.023437-0.066407-0.74219-1.6953-1.043-3.4961-0.89453-5.3477z"/>
  <path d="m16.406 47.656c-0.24219 0-0.46875 0.11328-0.61719 0.30469-0.14844 0.19141-0.19922 0.44141-0.14062 0.67578l1.1211 4.332c0.26172 1.0117 1.1758 1.7188 2.2227 1.7188h5.5391c1.0469 0 1.9609-0.70703 2.2227-1.7227l1.1211-4.332c0.058594-0.23437 0.007812-0.48437-0.14062-0.67578-0.14844-0.1875-0.375-0.30078-0.61719-0.30078zm8.832 4.918c-0.082031 0.32422-0.375 0.55078-0.70703 0.55078h-5.5391c-0.33594 0-0.625-0.22656-0.71094-0.55078l-0.86719-3.3555h8.6953z"/>
  <path d="m76.965 80.469c1.8633 0 3.6797-0.75781 4.9922-2.0781l7.543-7.6055c0.050781-0.050781 0.09375-0.10938 0.14453-0.16016 2.7969-2.8984 4.3398-6.6992 4.3398-10.734 0-4.582-2.0117-8.8984-5.5156-11.844l-2.4336-2.0469c-2.1484-1.8516-4.9375-2.9844-8-3.0234l-5.6211 5.6211c-0.58203 0.58203-1.3125 0.94531-2.1016 1.082v20.949l2.0977-0.21875c0.86328-0.089844 1.6016-0.64453 1.9297-1.4492l3.3945-8.3711c0.16406-0.39844 0.61719-0.59375 1.0156-0.42969 0.023438 0.007813 0.035156 0.027344 0.054688 0.039063 0.35547 0.18359 0.52734 0.60156 0.375 0.98047l-3.3945 8.3711c-0.54297 1.3398-1.7734 2.2656-3.2148 2.418l-2.2578 0.23438-1.5625 0.16406-9.375 0.98047v7.1211z"/>
 </g>
</svg>
