<?xml version="1.0" encoding="UTF-8"?>
<svg fill="#FF9700" width="100pt" height="100pt" version="1.1" viewBox="0 0 100 100" xmlns="http://www.w3.org/2000/svg">
 <g>
  <path d="m80.801 20.301c0 4.6367-3.7617 8.3984-8.4023 8.3984-4.6367 0-8.3984-3.7617-8.3984-8.3984 0-4.6406 3.7617-8.4023 8.3984-8.4023 4.6406 0 8.4023 3.7617 8.4023 8.4023"/>
  <path d="m94.301 17.301c-1.8984-0.30078-3.6016 0.89844-4.1992 2.6992l-2 6c-0.69922 2.1992-2.6016 3.8984-4.8984 4.5-3.3984 0.80078-6.8984 1.3008-10.5 1.3008h-0.60156c-3.5 0-7-0.39844-10.5-1.3008-2.3008-0.60156-4.1016-2.3008-4.8984-4.5l-2-6c-0.60156-1.8008-2.3984-3-4.1992-2.6992-2.3984 0.39844-3.6992 2.8008-3 4.8984l2 6c1.6016 4.8008 5.6016 8.5 10.602 9.6992 0.69922 0.19922 1.5 0.30078 2.1992 0.5l1 16.801-2.3047 28.602c-0.19922 1.8984 1 3.6992 2.8008 4.1992 2.3008 0.60156 4.5-1 4.6992-3.3008l2.1992-25.898c0.10156-0.89844 0.80078-1.6016 1.6992-1.6016 0.89844 0 1.6016 0.69922 1.6992 1.6016l2.1992 25.898c0.19922 2 1.8008 3.3984 3.8008 3.3984h0.5c2-0.19922 3.3984-2.1016 3.3008-4.1016l-2.5-28.699 1-16.801c0.69922-0.10156 1.5-0.30078 2.1992-0.5 5-1.1992 9-4.8008 10.602-9.6992l2-6c0.80078-2.1953-0.5-4.5977-2.8984-4.9961zm-19.902 30.301-1.6992 1.8984c-0.10156 0.19922-0.39844 0.19922-0.60156 0l-1.6992-1.8984c-0.10156-0.10156-0.10156-0.19922-0.10156-0.30078l1.3984-10.398h-0.69922c-0.19922 0-0.39844-0.19922-0.39844-0.39844v-2.1992c0-0.19922 0.19922-0.39844 0.39844-0.39844h2.6992c0.19922 0 0.39844 0.19922 0.39844 0.39844v2.1992c0 0.19922-0.19922 0.39844-0.39844 0.39844h-0.69922l1.3984 10.398c0.20703 0.097657 0.10547 0.19922 0.003907 0.30078z"/>
  <path d="m52.102 45h-9.5c-1 0-1.8008 0.80078-1.8008 1.8008v39.5c0 1 0.80078 1.8008 1.8008 1.8008h9.5c1 0 1.8008-0.80078 1.8008-1.8008l-0.003906-39.5c0-1-0.79688-1.8008-1.7969-1.8008z"/>
  <path d="m33 58.199h-9.5c-1 0-1.8008 0.80078-1.8008 1.8008v26.301c0 1 0.80078 1.8008 1.8008 1.8008h9.5c1 0 1.8008-0.80078 1.8008-1.8008v-26.301c0-1-0.80078-1.8008-1.8008-1.8008z"/>
  <path d="m13.801 71.5h-9.5c-1 0-1.8008 0.80078-1.8008 1.8008v13c0 1 0.80078 1.8008 1.8008 1.8008h9.5c1 0 1.8008-0.80078 1.8008-1.8008v-13c0-1.1016-0.80078-1.8008-1.8008-1.8008z"/>
 </g>
</svg>
