<?xml version="1.0" encoding="UTF-8"?>
<svg fill="#FF9700" width="100pt" height="100pt" version="1.1" viewBox="0 0 100 100" xmlns="http://www.w3.org/2000/svg">
 <path d="m20.93 9c-3.7773 0.62109-7.6719 1.3867-11.473 2.0859-1.5586 0.28906-2.7148 2-2.4062 3.5742l5 26.312c0.30078 1.543 1.9414 2.6797 3.4688 2.4023l11.004-2.0234c1.5586-0.28906 2.7148-2 2.4062-3.5742l-1.75-9.2344c1.5312-0.39453 3.0508-0.78906 4.5625-1.1055-0.46875 8.3672 0.88281 14.828 6.25 22.074l5 15.18-8.0039 12.145-12.973 9.043c-0.027344 2.0859-0.13672 2.6445 1 4.0781 0.98047 1.0234 3.9688 1.043 4.9688 1.043l12.004-9.1094 10.004-11.133c7.0039-1.0117 10.004 0 14.004 3.0352l0.0625 13.188c-0.082032 2.25 2.293 3.9844 3.9375 4.0156 1.5156-0.03125 3.3086-1.4258 4-3.0352l-0.25-15.402c0.16016-1.9219-0.73828-3.3594-1.9688-4.1094l-10.785-5.7852c0.89062-4.0195 1.6797-7.9102 2-13.156 7.207-7.293 8.707-13.781 7.3164-22.23 1.5156 0.30078 3.0352 0.63281 4.5625 1.0117l-1.8125 9.4883c-0.30469 1.5742 0.84766 3.2852 2.4062 3.5742l11.004 2.0234c1.5273 0.27344 3.1719-0.86328 3.4688-2.4023l5-26.312c0.30469-1.5742-0.84766-3.2852-2.4062-3.5742-2.4961-0.44141-8.0273-1.9766-11.91-2.0547-1.2422 0.16016-2.3242 1.1914-2.5625 2.4336l-2.0625 10.848c-7.9258-1.9297-15.711-2.9102-23.508-2.9102-8.1094 0-16.219 1.0391-24.477 3.1289l-2.0938-11.07c-0.26172-1.3906-1.6016-2.4922-3-2.4648zm-2.3125 6.5781 3.875 20.332-5.125 0.94922-3.875-20.332zm62.77 0 5.125 0.94922-3.875 20.332-5.125-0.94922zm-30.883 9.8672c3.8359 0 7.668 0.25391 11.535 0.75781 0.92188 8.0508 0.40234 14.609-7.2539 20.461h-10.004c-6.3164-5.8594-6.7383-11.57-6.8164-20.332 4.207-0.59766 8.3672-0.88672 12.535-0.88672zm-1 6.8633c-2.5234 0.25781-4.5 2.4414-4.5 5.0586 0 2.793 2.2383 5.0586 5 5.0586 2.7617 0 5-2.2656 5-5.0586 0-2.793-2.2383-5.0586-5-5.0586-0.17188 0-0.33203-0.015625-0.5 0z"/>
</svg>
