<?xml version="1.0" encoding="UTF-8"?>
<svg fill="#FF9700" width="100pt" height="100pt" version="1.1" viewBox="0 0 100 100" xmlns="http://www.w3.org/2000/svg">
 <path d="m50 9c-1.1055 0-2-0.89453-2-2v-3.8398c0-1.1055 0.89453-2 2-2s2 0.89453 2 2v3.8398c0 0.53125-0.21094 1.0391-0.58594 1.4141s-0.88281 0.58594-1.4141 0.58594zm-20 12.121c0 0.53125 0.21094 1.0391 0.58594 1.4141s0.88281 0.58594 1.4141 0.58594h3.8906c0.53125 0 1.0391-0.21094 1.4141-0.58594s0.58594-0.88281 0.58594-1.4141-0.21094-1.0391-0.58594-1.4141-0.88281-0.58594-1.4141-0.58594h-3.8906c-1.1055 0-2 0.89453-2 2zm37.941-2h-3.8633c-1.1016 0-2 0.89453-2 2 0 1.1016 0.89844 2 2 2h3.9219c0.53125 0 1.043-0.21484 1.4219-0.58984 0.36328-0.36719 0.57031-0.86328 0.57812-1.3828 0.03125-0.51563-0.15234-1.0234-0.51172-1.3984-0.38281-0.41016-0.92578-0.64062-1.4883-0.62891zm-5.2109-12.742c-0.54297 0.003906-1.0664 0.22656-1.4414 0.62109l-2.75 2.7188c-0.39453 0.37891-0.61719 0.90234-0.61719 1.4453 0 0.54688 0.22266 1.0703 0.61719 1.4453 0.39453 0.34766 0.89453 0.54688 1.4219 0.5625 0.52734-0.003906 1.0352-0.21484 1.4102-0.59375l2.75-2.75c0.60156-0.56641 0.78516-1.4492 0.46875-2.2148s-1.0703-1.2539-1.8984-1.2344zm-24.07 0.62109c-0.78125-0.78906-2.0547-0.79688-2.8438-0.015625-0.79297 0.78125-0.79688 2.0547-0.015625 2.8438l2.7891 2.75c0.79297 0.78125 2.0664 0.76953 2.8438-0.023437 0.78125-0.79297 0.76953-2.0664-0.023438-2.8438zm2.7812 14.441c0.011719 3.457 2.1055 6.5703 5.3047 7.8867 3.1992 1.3125 6.875 0.57422 9.3164-1.875 2.4414-2.4531 3.168-6.1289 1.8438-9.3242-1.3281-3.1953-4.4453-5.2773-7.9062-5.2773-4.7227 0.003907-8.5508 3.8359-8.5508 8.5586zm-26.441 28.309l1.7617 15.531c0.21875 1.9336 1.5156 3.582 3.3477 4.25l3 27.219c0.13281 1.1914 1.1406 2.0938 2.3398 2.0898h4.7109c1.1992 0.003906 2.207-0.89844 2.3398-2.0898l3-27.18c0.69922-0.24609 1.3359-0.63672 1.8711-1.1484l-0.21875-2h-0.003906c-2.3633-1.668-3.9023-4.2656-4.2188-7.1406l-1.6992-15-2.8008 3.5c-0.14063 0.17188-0.35156 0.27344-0.57422 0.27344-0.22266 0-0.43359-0.10156-0.57422-0.27344l-3.7109-4.6406c-0.058593-0.070313-0.14062-0.10938-0.23047-0.10938h-2.3398c-1.7188 0.003906-3.3516 0.74219-4.4961 2.0234-1.1445 1.2812-1.6914 2.9883-1.5039 4.6953zm5.6602-16.441c0 3.9609 3.2109 7.1719 7.168 7.1719 0.99219 0 1.9688-0.21094 2.8711-0.60938-0.16406-3.4219 1.2734-6.7227 3.8906-8.9297-1.1406-3.3164-4.5156-5.3164-7.9727-4.7305-3.4531 0.58984-5.9766 3.5938-5.957 7.0977zm58.34 9.6914h-2.3281c-0.089844 0-0.17578 0.039062-0.23047 0.10938l-3.7109 4.6406c-0.14062 0.17188-0.35156 0.27344-0.57422 0.27344s-0.4375-0.10156-0.57812-0.27344l-2.7109-3.3789-1.6875 14.879c-0.33984 2.9258-1.9297 5.5586-4.3594 7.2188l-0.19922 1.8398c0.52344 0.54297 1.1641 0.96484 1.8672 1.2305l3 27.219v0.003907c0.13281 1.1914 1.1445 2.0898 2.3398 2.0898h4.6719c1.1992 0 2.207-0.89844 2.3398-2.0898l3-27.18v-0.003906c1.8906-0.63281 3.2422-2.3047 3.4688-4.2891l1.6914-15.539c0.19531-1.7109-0.34766-3.4258-1.4922-4.7148-1.1445-1.2891-2.7852-2.0312-4.5078-2.0352zm-6.8008-16.852c-3.043 0-5.7539 1.9258-6.7578 4.8008 2.6133 2.2109 4.0508 5.5117 3.8867 8.9297 0.90625 0.40234 1.8828 0.60938 2.8711 0.60938 3.9609 0 7.1719-3.207 7.1719-7.168 0-3.9609-3.2109-7.1719-7.1719-7.1719zm-9 32.648l2.1016-18.539v0.003907c0.21875-2.043-0.44141-4.0781-1.8125-5.6055-1.3711-1.5234-3.3281-2.3984-5.3789-2.3945h-2.7812c-0.10547-0.003907-0.21094 0.046875-0.27734 0.12891l-4.4297 5.5312c-0.16797 0.20703-0.42188 0.32422-0.6875 0.32422s-0.51562-0.11719-0.68359-0.32422l-4.4297-5.5312c-0.070312-0.085937-0.17187-0.13281-0.28125-0.12891h-2.6602c-2.0508-0.003907-4.0078 0.87109-5.3789 2.3945-1.3711 1.5273-2.0273 3.5625-1.8086 5.6055l2.1094 18.539c0.26172 2.3125 1.8125 4.2812 4 5.0781l3.5391 32.48c0.16406 1.418 1.3633 2.4883 2.7891 2.4922h5.6211c1.4258-0.003906 2.6289-1.0742 2.7891-2.4922l3.5391-32.441v0.003906c2.25-0.76953 3.8555-2.7617 4.1211-5.1211z"/>
</svg>
