<?xml version="1.0" encoding="UTF-8"?>
<svg fill="#FF9700" width="100pt" height="100pt" version="1.1" viewBox="0 0 100 100" xmlns="http://www.w3.org/2000/svg">
 <path d="m42.062 60.43c-0.57031 0.17969-1.1602 0.29687-1.7461 0.31641h-0.24219c-0.15625-0.019532-0.3125-0.019532-0.47266-0.019532-0.019531-0.019531-0.019531-0.019531-0.039062-0.019531-12.23-0.67188-4.2852-15.848-13.785-19.434h-0.003906v-0.003907s0.003906 0 0.007812 0.003907c3.5234 0.21875 6.4961 0.56641 8.9961 1.0586 2.5625 0.49219 4.625 1.125 6.3047 1.8555-0.31641 1.0039-0.49219 1.9883-0.53516 2.9102-0.058594 1.0078 0 2.0156 0.16016 2.9609-1.2773-1.4375-2.7422-2.5781-4.293-3.4297 7.4414 7.5625 5.6484 13.801 5.6484 13.801zm11.984 0.26953c-0.019531 0.007812-0.019531 0.003906-0.039063 0.007812-0.25 0.003907-0.47656 0.019531-0.70312 0.03125-0.11328 0.019531-0.23047 0-0.35156 0-0.85938-0.019531-1.7227-0.1875-2.5625-0.46094 0 0-2.6055-9.1133 8.2812-20.207-3.4062 1.8477-6.5273 4.7148-8.9023 8.4336-1.8711 2.9414-3.0508 6.0742-3.5703 9.1836-1.0547-1.3945-3.9727-5.7461-3.6914-10.48 0.30078-5.0977 4.3672-10.637 18.562-13.426 3.6719-0.71094 8.0234-1.2344 13.164-1.5273-13.926 5.2422-2.2891 27.445-20.188 28.445z"/>
 <path transform="translate(-100 -100)" d="m116.5 123.5h67v46h-67z" fill="none" stroke="#FF9700" stroke-linejoin="round" stroke-miterlimit="10" stroke-width="4"/>
 <path transform="translate(-100 -100)" d="m107.5 176.5h85" fill="none" stroke="#FF9700" stroke-linecap="round" stroke-linejoin="round" stroke-miterlimit="10" stroke-width="4"/>
</svg>
