<?xml version="1.0" encoding="UTF-8"?>
<svg fill="#FF9700" width="100pt" height="100pt" version="1.1" viewBox="0 0 100 100" xmlns="http://www.w3.org/2000/svg">
 <g stroke-miterlimit="10">
  <path transform="matrix(.14125 0 0 .14125 0 6.25)" d="m460.15 332.72c11.173 12.389 24.281 18.778 29.287 14.242l5.6693-5.0885c5.0055-4.5077 0-18.197-11.173-30.586l-80.891-89.657c-11.173-12.389-24.281-18.75-29.287-14.242l-5.6693 5.1162c-5.0055 4.5077 0 18.197 11.173 30.586z" stroke="#FF9700"/>
  <path transform="matrix(.14125 0 0 .14125 0 6.25)" d="m418.61 134.21c0 30.31-24.585 54.895-54.895 54.895-30.31 0-54.895-24.585-54.895-54.895 0-30.31 24.585-54.895 54.895-54.895 30.31 0 54.895 24.585 54.895 54.895" stroke="#FF9700"/>
  <path transform="matrix(.14125 0 0 .14125 0 6.25)" d="m333.66 87.223c0 16.565-24.834 16.565-24.834 0s24.834-16.565 24.834 0" stroke="#FF9700"/>
  <path transform="matrix(.14125 0 0 .14125 0 6.25)" d="m321.24 112.06c0 16.565-24.834 16.565-24.834 0 0-16.565 24.834-16.565 24.834 0" stroke="#FF9700"/>
  <path transform="matrix(.14125 0 0 .14125 0 6.25)" d="m359.51 75.304c0 16.565-24.834 16.565-24.834 0 0-16.538 24.834-16.538 24.834 0" stroke="#FF9700"/>
  <path transform="matrix(.14125 0 0 .14125 0 6.25)" d="m388.55 74.806c0 16.565-24.834 16.565-24.834 0 0-16.565 24.834-16.565 24.834 0" stroke="#FF9700"/>
  <path transform="matrix(.14125 0 0 .14125 0 6.25)" d="m413.39 87.223c0 16.565-24.834 16.565-24.834 0s24.834-16.565 24.834 0" stroke="#FF9700"/>
  <path transform="matrix(.14125 0 0 .14125 0 6.25)" d="m431.03 111.06c0 16.565-24.834 16.565-24.834 0s24.834-16.565 24.834 0" stroke="#FF9700"/>
  <path transform="matrix(.14125 0 0 .14125 0 6.25)" d="m406.42 454.4c0 6.6372-6.3883 12.002-14.298 12.002h-8.9325c-7.8816 0-14.298-5.365-14.298-12.002l0.027655-47.981c0-6.6372 6.3883-12.002 14.298-12.002h8.9325c7.8816 0 14.298 5.365 14.298 12.002z" stroke="#FF9700"/>
  <path transform="matrix(.14125 0 0 .14125 0 6.25)" d="m358.52 454.4c0 6.6372-6.3883 12.002-14.298 12.002h-8.9325c-7.8816 0-14.298-5.365-14.298-12.002l0.027655-47.981c0-6.6372 6.3883-12.002 14.298-12.002h8.9325c7.8816 0 14.298 5.365 14.298 12.002z" stroke="#FF9700"/>
  <path transform="matrix(.14125 0 0 .14125 0 6.25)" d="m180.25 173.2c0 30.31-24.558 54.895-54.867 54.895-30.337 0-54.895-24.585-54.895-54.895 0-30.31 24.558-54.895 54.895-54.895 30.31 0 54.867 24.585 54.867 54.895" stroke="#FF9700"/>
  <path transform="matrix(.14125 0 0 .14125 0 6.25)" d="m106.36 128.1c0 28.982-43.473 28.982-43.473 0s43.473-28.982 43.473 0" stroke="#FF9700"/>
  <path transform="matrix(.14125 0 0 .14125 0 6.25)" d="m167.53 503.98c0 6.6372-6.3883 12.002-14.298 12.002h-8.9325c-7.8816 0-14.298-5.365-14.298-12.002v-48.009c0-6.6372 6.3883-12.002 14.298-12.002h8.9325c7.8816 0 14.298 5.365 14.298 12.002z" stroke="#FF9700"/>
  <path transform="matrix(.14125 0 0 .14125 0 6.25)" d="m119.64 503.98c0 6.6372-6.3883 12.002-14.298 12.002h-8.9049c-7.8816 0-14.298-5.365-14.298-12.002v-48.009c0-6.6372 6.3883-12.002 14.298-12.002h8.9325c7.8816 0 14.298 5.365 14.298 12.002z" stroke="#FF9700"/>
  <path transform="matrix(.14125 0 0 .14125 0 6.25)" d="m485.9 312.22c-11.864 7.7987-18.252 19.054-14.242 25.138l4.5354 6.8861c4.01 6.0841 16.869 4.7013 28.733-3.0973l85.979-56.471c11.864-7.7987 18.252-19.054 14.242-25.138l-4.5354-6.8861c-4.01-6.0841-16.869-4.7013-28.733 3.0973z" stroke="#FF9700"/>
  <path transform="matrix(.14125 0 0 .14125 0 6.25)" d="m259.71 330.67c-11.173 12.389-24.281 18.778-29.287 14.242l-5.6693-5.1162c-5.0055-4.5077 0-18.197 11.173-30.586l80.891-89.657c11.173-12.389 24.281-18.75 29.287-14.242l5.6693 5.1162c5.0055 4.5077 0 18.197-11.173 30.586z" stroke="#FF9700"/>
  <path transform="matrix(.14125 0 0 .14125 0 6.25)" d="m359.51 190.1c-62.97 5.8352-71.35 196.63-94.663 240.32h189.33c-23.313-43.695-31.72-234.49-94.663-240.32z" stroke="#FF9700"/>
  <path transform="matrix(.14125 0 0 .14125 0 6.25)" d="m641.48 186.14c0 30.337-24.558 54.895-54.867 54.895-30.337 0-54.895-24.558-54.895-54.895 0-30.31 24.558-54.867 54.895-54.867 30.31 0 54.867 24.558 54.867 54.867" stroke="#FF9700"/>
  <path transform="matrix(.14125 0 0 .14125 0 6.25)" d="m652.27 209.9c0 28.982-43.473 28.982-43.473 0s43.473-28.982 43.473 0" stroke="#FF9700"/>
  <path transform="matrix(.14125 0 0 .14125 0 6.25)" d="m586.62 241.7c-62.97 5.8352-71.35 196.63-94.663 240.32h189.33c-23.313-43.695-31.72-234.49-94.663-240.32z" stroke="#FF9700"/>
  <path transform="matrix(.14125 0 0 .14125 0 6.25)" d="m629.29 516.51c0 6.6372-6.3883 12.002-14.298 12.002h-8.9325c-7.8816 0-14.298-5.365-14.298-12.002v-48.009c0-6.6372 6.3883-12.002 14.298-12.002h8.9325c7.8816 0 14.298 5.365 14.298 12.002z" stroke="#FF9700"/>
  <path transform="matrix(.14125 0 0 .14125 0 6.25)" d="m581.42 516.51c0 6.6372-6.3883 12.002-14.298 12.002h-8.9325c-7.8816 0-14.298-5.365-14.298-12.002v-48.009c0-6.6372 6.3883-12.002 14.298-12.002h8.9325c7.8816 0 14.298 5.365 14.298 12.002z" stroke="#FF9700"/>
  <path transform="matrix(.14125 0 0 .14125 0 6.25)" d="m233.82 310.65c11.809 7.9093 18.086 19.22 14.021 25.277l-4.5907 6.8584c-4.0653 6.0564-16.897 4.5354-28.706-3.3462l-85.454-57.246c-11.809-7.9093-18.086-19.22-14.021-25.277l4.5907-6.8584c4.0653-6.0564 16.897-4.5354 28.706 3.3462z" stroke="#FF9700"/>
  <path transform="matrix(.14125 0 0 .14125 0 6.25)" d="m124.83 229.18c-62.97 5.8352-71.35 196.63-94.663 240.32h189.33c-23.313-43.722-31.692-234.51-94.663-240.32z" stroke="#FF9700"/>
 </g>
</svg>
