<?xml version="1.0" encoding="UTF-8"?>
<svg fill="#FF9700" width="100pt" height="100pt" version="1.1" viewBox="0 0 100 100" xmlns="http://www.w3.org/2000/svg">
 <g>
  <path d="m58.598 50c0 6.9023-5.5977 12.5-12.5 12.5-6.9062 0-12.5-5.5977-12.5-12.5s5.5938-12.5 12.5-12.5c6.9023 0 12.5 5.5977 12.5 12.5"/>
  <path d="m89.309 58.625c-2.1172-0.85547-4.5625 0.18359-5.418 2.3281l-6.3164 15.785-12.316-9.2383c-0.72266-0.54297-1.5977-0.83203-2.5-0.83203h-33.332c-0.89844 0-1.7773 0.29297-2.5 0.83203l-12.316 9.2383-6.3125-15.785c-0.85547-2.1406-3.2656-3.1797-5.418-2.3281-2.1367 0.85547-3.1758 3.2773-2.3203 5.4219l8.332 20.832c0.48438 1.2031 1.4961 2.1172 2.7461 2.4648 1.2461 0.33984 2.5859 0.097656 3.625-0.67969l14.168-10.625v23.957h33.332v-23.957l14.168 10.625c0.73437 0.55078 1.6133 0.83203 2.5 0.83203 0.375 0 0.75781-0.058594 1.1289-0.15234 1.25-0.35156 2.2617-1.2617 2.7461-2.4648l8.332-20.832c0.84375-2.1445-0.19922-4.5664-2.3281-5.4219z"/>
  <path d="m50 25c6.9023 0 12.5-5.5977 12.5-12.5s-5.5977-12.5-12.5-12.5-12.5 5.5977-12.5 12.5 5.5977 12.5 12.5 12.5zm0-20.832c4.5977 0 8.332 3.7383 8.332 8.332 0 4.5977-3.7383 8.332-8.332 8.332-4.5977 0-8.332-3.7383-8.332-8.332 0-4.5977 3.7344-8.332 8.332-8.332z"/>
  <path d="m83.332 12.5l-16.668 29.168h33.332zm0 8.3984l9.4844 16.602h-18.973z"/>
  <path d="m33.332 33.332l-16.668-16.668-16.668 16.668 16.668 16.668zm-16.664-10.773l10.773 10.773-10.773 10.777-10.777-10.777z"/>
 </g>
</svg>
