<?xml version="1.0" encoding="UTF-8"?>
<svg fill="#FF9700" width="100pt" height="100pt" version="1.1" viewBox="0 0 100 100" xmlns="http://www.w3.org/2000/svg">
 <g>
  <path d="m9.375 70.312c0 2.0703 0.82422 4.0586 2.2891 5.5234 1.4648 1.4648 3.4531 2.2891 5.5234 2.2891h17.188v9.375h-6.25c-0.86328 0-1.5625 0.69922-1.5625 1.5625s0.69922 1.5625 1.5625 1.5625h43.75c0.86328 0 1.5625-0.69922 1.5625-1.5625s-0.69922-1.5625-1.5625-1.5625h-6.25v-9.375h17.188c2.0703 0 4.0586-0.82422 5.5234-2.2891 1.4648-1.4648 2.2891-3.4531 2.2891-5.5234v-4.6875h-81.25z"/>
  <path d="m61.031 39.062h-21.969v23.438h21.969zm-3.2188 18.75c0 0.41406-0.16406 0.8125-0.45703 1.1055s-0.69141 0.45703-1.1055 0.45703h-10.938c-0.86328 0-1.5625-0.69922-1.5625-1.5625v-0.78125c0-2.2812 1.1094-4.418 2.9688-5.7344-1.4531-1.6133-1.8242-3.9336-0.9375-5.918 0.88281-1.9844 2.8516-3.2656 5.0234-3.2656 2.1719 0 4.1406 1.2812 5.0234 3.2656 0.88672 1.9844 0.51562 4.3047-0.9375 5.918 1.8477 1.3203 2.9375 3.4609 2.9219 5.7344z"/>
  <path d="m35.938 39.062h-26.562v23.438h26.562zm-4.6875 18.75c0 0.41406-0.16406 0.8125-0.45703 1.1055s-0.69141 0.45703-1.1055 0.45703h-10.938c-0.86328 0-1.5625-0.69922-1.5625-1.5625v-0.78125c0-2.2812 1.1094-4.418 2.9688-5.7344-1.4531-1.6133-1.8242-3.9336-0.9375-5.918 0.88281-1.9844 2.8516-3.2656 5.0234-3.2656 2.1719 0 4.1406 1.2812 5.0234 3.2656 0.88672 1.9844 0.51562 4.3047-0.9375 5.918 1.8477 1.3203 2.9375 3.4609 2.9219 5.7344z"/>
  <path d="m64.156 62.5h26.469v-23.438h-26.469zm4.5938-5.4688c0-2.2812 1.1094-4.418 2.9688-5.7344-1.4531-1.6133-1.8242-3.9336-0.9375-5.918 0.88281-1.9844 2.8516-3.2656 5.0234-3.2656 2.1719 0 4.1406 1.2812 5.0234 3.2656 0.88672 1.9844 0.51562 4.3047-0.9375 5.918 1.8477 1.3203 2.9375 3.4609 2.9219 5.7344v0.78125c0 0.41406-0.16406 0.8125-0.45703 1.1055s-0.69141 0.45703-1.1055 0.45703h-10.938c-0.86328 0-1.5625-0.69922-1.5625-1.5625z"/>
  <path d="m82.812 9.375h-18.656v26.562h26.469v-18.75c0-2.0703-0.82422-4.0586-2.2891-5.5234-1.4648-1.4648-3.4531-2.2891-5.5234-2.2891zm0 21.953c0 0.41406-0.16406 0.8125-0.45703 1.1055-0.29297 0.29297-0.69141 0.45703-1.1055 0.45703h-10.938c-0.86328 0-1.5625-0.69922-1.5625-1.5625v-0.78125c0-2.2812 1.1055-4.418 2.9688-5.7344-1.4531-1.6133-1.8242-3.9336-0.9375-5.918 0.88281-1.9844 2.8516-3.2656 5.0234-3.2656 2.1719 0 4.1406 1.2812 5.0234 3.2656 0.88672 1.9844 0.51562 4.3047-0.9375 5.918 1.8477 1.3203 2.9375 3.4609 2.9219 5.7344z"/>
  <path d="m61.031 9.375h-21.969v26.562h21.969zm-3.2188 21.953c0 0.41406-0.16406 0.8125-0.45703 1.1055-0.29297 0.29297-0.69141 0.45703-1.1055 0.45703h-10.938c-0.86328 0-1.5625-0.69922-1.5625-1.5625v-0.78125c0-2.2812 1.1055-4.418 2.9688-5.7344-1.4531-1.6133-1.8242-3.9336-0.9375-5.918 0.88281-1.9844 2.8516-3.2656 5.0234-3.2656 2.1719 0 4.1406 1.2812 5.0234 3.2656 0.88672 1.9844 0.51562 4.3047-0.9375 5.918 1.8477 1.3203 2.9375 3.4609 2.9219 5.7344z"/>
  <path d="m35.938 9.375h-18.75c-4.3164 0-7.8125 3.4961-7.8125 7.8125v18.75h26.562zm-4.6875 21.953c0 0.41406-0.16406 0.8125-0.45703 1.1055-0.29297 0.29297-0.69141 0.45703-1.1055 0.45703h-10.938c-0.86328 0-1.5625-0.69922-1.5625-1.5625v-0.78125c0-2.2812 1.1055-4.418 2.9688-5.7344-1.4531-1.6133-1.8242-3.9336-0.9375-5.918 0.88281-1.9844 2.8516-3.2656 5.0234-3.2656 2.1719 0 4.1406 1.2812 5.0234 3.2656 0.88672 1.9844 0.51562 4.3047-0.9375 5.918 1.8477 1.3203 2.9375 3.4609 2.9219 5.7344z"/>
 </g>
</svg>
