<?xml version="1.0" encoding="UTF-8"?>
<svg fill="#FF9700" width="100pt" height="100pt" version="1.1" viewBox="0 0 100 100" xmlns="http://www.w3.org/2000/svg">
 <g>
  <path d="m81.078 10.887c-4.207 2.2617-8.4258 0.23828-12.512-1.7188-4.0273-1.9336-11.059-2.6055-11.5-2.6055-1.4492 0-2.6289 1.1797-2.6289 2.6289v32.113h-26.855c-5.6328 0-10.211 4.582-10.211 10.211v17.691c0 2.4609 2 4.4609 4.4609 4.4609h1.0742v18.434c0 2.4609 2 4.4609 4.4609 4.4609h8.4336c2.4609 0 4.4609-2 4.4609-4.4609l-0.003907-41.215h14.184v17.785c0 1.4492 1.1797 2.6289 2.6289 2.6289 1.4492 0 2.6289-1.1797 2.6289-2.6289l-0.003907-19.145c2.4375-1.5547 3.9609-4.2383 4.0156-7.1484l0.019531-1.0703h-4.0352v-16.637c0.26563-0.027344 0.51953-0.039063 0.76953-0.039063 2.8945 0 5.7695 1.3789 8.5586 2.7188 4.5781 2.1992 8.9062 4.2773 13.234 0.57422l0.36719-0.31641 0.003906-17.559z"/>
  <path d="m31.578 39.738c5.3945 0 9.7812-4.3867 9.7812-9.7812 0-5.3906-4.3867-9.7812-9.7812-9.7812s-9.7812 4.3867-9.7812 9.7812c0.003906 5.3945 4.3906 9.7812 9.7812 9.7812z"/>
 </g>
</svg>
