<?xml version="1.0" encoding="UTF-8"?>
<svg fill="#FF9700" width="100pt" height="100pt" version="1.1" viewBox="0 0 100 100" xmlns="http://www.w3.org/2000/svg">
 <g>
  <path d="m35.5 63.199c0 6 4.8008 10.801 10.801 10.801 5.8984 0 10.801-4.8008 10.801-10.801 0-5.8984-4.8008-10.801-10.801-10.801-5.9023 0-10.801 4.9023-10.801 10.801z"/>
  <path d="m67.301 47.801c-2.6016-0.10156-4.6992 1.8984-4.6992 4.5v2.6992c0.19922 9.6016-1.8984 16.5-6 19.898-0.5 0.39844-1.1016 0.89844-1.6016 1.1992-2.5 1.6992-5.3984 2.6016-8.6016 2.6016-3.6992 0-7.1016-1.3008-9.8008-3.5-4.5 2-8 5.8008-8 12.102v7.8984c0 1.1992 1 2.1992 2.1992 2.1992h31.199c1.1992 0 2.1992-1 2.1992-2.1992v-7.8984-1.1992c-0.19922-3.1992 0.5-6.3984 2.1992-9 3.6016-5.3984 5.3008-12.801 5.1016-22.199v-2.3984c0.003906-2.4023-1.7969-4.6055-4.1953-4.7031z"/>
  <path d="m34.801 38.102h4.3984l5.5 8.6016c0.69922 1.1992 2.3984 1.1992 3.1992 0l5.5-8.6016h4.3984c3.5 0 6.3008-2.8008 6.3008-6.3008v-23c0-3.5-2.8008-6.3008-6.3008-6.3008h-23c-3.5 0-6.3008 2.8008-6.3008 6.3008v23c0.003906 3.5 2.8047 6.3008 6.3047 6.3008zm1.8984-19.902c1.1016-1.1016 3-1.1016 4.1992 0l2.8984 2.8984 8-8c1.1016-1.1016 3-1.1016 4.1992 0 1.1016 1.1016 1.1016 3 0 4.1992l-10 10c-0.60156 0.60156-1.3008 0.89844-2.1016 0.89844s-1.5-0.30078-2.1016-0.89844l-5-5c-1.1914-1.0977-1.1914-2.8984-0.09375-4.0977z"/>
 </g>
</svg>
