<?xml version="1.0" encoding="UTF-8"?>
<svg fill="#FF9700" width="100pt" height="100pt" version="1.1" viewBox="0 0 100 100" xmlns="http://www.w3.org/2000/svg">
 <path d="m68.469 48.949h17.117c10.512 6.3047 12.012 18.316 0.60156 26.727h9.0078c3.3047 0 3.3047 4.5039 0 4.5039h-90.391c-3.0039 0-3.0039-4.5039 0-4.5039h16.215v-1.5c0-0.60156 0.30078-0.90234 0.90234-0.90234h6.6055l0.60156-6.3047h-14.113c-1.2031 0-2.7031-1.2031-2.7031-2.4023l-5.1055-30.031c-0.30078-1.2031 0.60156-2.4023 1.8008-2.4023h40.242c1.5 0 2.7031 1.2031 3.0039 2.4023l5.1055 30.031c0.30078 1.2031-0.60156 2.4023-2.1016 2.4023h-18.918l-0.60156 6.3047h3.6055c0.30078-1.5 1.2031-2.7031 2.7031-2.7031h4.2031c1.5 0.60156 2.7031 1.8008 3.0039 3.0039h-1.2031c-1.2031 0-2.4023 0.90234-2.4023 2.1016h20.723c0-1.2031-1.2031-2.1016-2.4023-2.1016h-13.812c0-1.2031-0.90234-2.1016-1.8008-3.0039h6.9062c5.1055 0 8.707-3.0039 8.707-8.1094v-9.6094c0-2.1016 2.1016-3.9023 4.5039-3.9023zm-36.336-3.3047h0.60156c-0.60156 0.30078-0.90234 1.2031-0.90234 1.8008 0 1.5 1.2031 2.7031 2.7031 2.7031 0.60156 0 1.2031-0.30078 1.8008-0.60156 0 2.4023-1.8008 4.2031-4.2031 4.2031-2.1016 0-3.9023-1.8008-3.9023-4.2031 0-2.1016 1.8008-3.9023 3.9023-3.9023zm39.039-25.527c6.3047 0 11.41 5.707 11.41 13.215 0 7.207-5.1055 13.215-11.41 13.215s-11.711-6.0078-11.711-13.215c0-7.5078 5.4062-13.215 11.711-13.215zm9.3086 55.555v-0.90234c0-2.7031-2.7031-4.8047-6.0078-4.8047 2.4023 0.30078 4.5039 2.4023 4.5039 4.8047v0.90234zm5.4062-18.918c3.6055 1.5 3.6055 10.211 0 10.812z" fill-rule="evenodd"/>
</svg>
