<?xml version="1.0" encoding="UTF-8"?>
<svg fill="#FF9700" width="100pt" height="100pt" version="1.1" viewBox="0 0 100 100" xmlns="http://www.w3.org/2000/svg">
 <g>
  <path d="m19.992 47.113c0.20312 0.003907 0.38281-0.074219 0.54297-0.19141 0.52344 3.1992 1.8906 7.082 5.2578 9.8008 0 0 7.707 6.1133 15.828-0.12109 3.2891-2.7383 4.6172-6.5977 5.1211-9.7656 0.17969 0.16016 0.39062 0.27734 0.63281 0.27734 0.72266 0.003907 1.6914-1.0352 2.7422-5.0625 1.3125-5.043 0.074218-6.0273-1.1172-6.0117-0.17188 0.003907-0.33984 0.023438-0.5 0.058594 0.003906-0.035156 0.007812-0.054687 0.007812-0.054687 3.3281-13.965-3.6094-14.496-4.7148-14.496-0.09375 0-0.14453 0.003906-0.14453 0.003906-0.58984-2.6289-3.9375-5.3555-7.4336-5.4414-0.5-0.011719-1.0039 0.027344-1.5 0.13281-1.2422 0.25781-2.9023 0.34375-4.5938 0.33984-3.7227-0.007812-7.6055-0.44922-7.6055-0.44922-0.11328 1.7383 1.375 2.9414 1.375 2.9414-8.4727 5.168-4.9492 16.922-4.9492 16.922l-0.003906 0.10938c-0.23828-0.070313-0.28125-0.066407-0.55859-0.070313-1.1875-0.007812-2.418 0.98438-1.1094 6.0117 1.0391 3.9961 2.0039 5.0508 2.7227 5.0664z"/>
  <path d="m58.438 65.734c-7.6602-1.9492-13.887-6.3281-13.887-6.3281l-4.8555 15.359-0.91406 2.8906-0.015625-0.039062-0.79688 2.4492-2.5625-7.2656c6.4766-9.0352-1.7148-8.6836-1.7148-8.6836s-8.1914-0.35156-1.7148 8.6836l-2.5859 7.3203-0.78906-2.4766-5.7695-18.242s-6.2266 4.3828-13.887 6.3281c-5.7148 1.4531-5.9844 8.0508-5.7578 11.312l-0.027344-0.007813s-0.066406 4.5352 0.66406 6.3711c0 0 11.152 7.25 29.836 7.25l-0.011718-0.42188 0.035156 0.42188c18.684 0 29.836-7.25 29.836-7.25 0.73047-1.8398 0.66406-6.3711 0.66406-6.3711 0.24219-3.2578-0.035156-9.8477-5.7461-11.301z"/>
  <path d="m93.207 53c-3.4688-1.6328-5.2344-1.9609-5.3594-2.0234-0.12109-0.066406-5-1.1094-6.625-2.7227l4.5117 10.449-4.8711-0.71875-9.2266 13.508 9.2266-13.504-7.8789 8.8203 5.2578-18.27v-4.0664c9.0391 0.078125 11.699-3.793 11.699-3.793s-5.1641-0.078126-4.8438-13.711c0.32031-13.633-5.9648-15.883-8.3086-16.773-6.8203-2.5938-10.25 1.5312-10.25 1.5312-7.9062-0.73047-10.09 7.9062-9.1172 17.742 0.97266 9.8398-4.4336 11.367-4.4336 11.367 3.7148 3.793 11.539 3.5547 11.539 3.5547v4.1484l5.6094 18.109-7.6914-8.6133-0.035156-0.050781h-0.007812l-4.8594 0.71875 4.1992-10.469c-0.054688 0.054687-0.11719 0.10938-0.17969 0.16406-0.019531 0.019531-0.042969 0.035156-0.0625 0.054687-0.042969 0.035156-0.089844 0.074219-0.13672 0.10938-0.027343 0.019531-0.054687 0.039062-0.078125 0.058594-0.046875 0.035156-0.09375 0.066406-0.14062 0.10156-0.027343 0.019532-0.058593 0.039063-0.085937 0.058594-0.050782 0.035156-0.10547 0.066406-0.15625 0.10156-0.027344 0.015626-0.054688 0.035157-0.078125 0.050782-0.074219 0.046875-0.14844 0.089844-0.22656 0.13281-0.007812 0.003906-0.015625 0.007813-0.023437 0.011719-0.085938 0.046875-0.17188 0.09375-0.26172 0.14062-0.027344 0.015625-0.058594 0.03125-0.089844 0.046875-0.0625 0.03125-0.12109 0.0625-0.18359 0.09375-0.035156 0.015625-0.070312 0.035156-0.10547 0.050781-0.058594 0.027344-0.12109 0.058594-0.17969 0.085938l-0.10547 0.046875c-0.066407 0.027343-0.12891 0.058593-0.19531 0.085937-0.03125 0.011719-0.058594 0.027344-0.089844 0.039063-0.089843 0.039062-0.18359 0.078125-0.27344 0.11328-0.003906 0.003906-0.007813 0.003906-0.011719 0.003906-0.097656 0.039063-0.19922 0.078125-0.29688 0.11719-0.023438 0.007812-0.046875 0.019531-0.070312 0.027344-0.074219 0.027343-0.15234 0.058593-0.22656 0.085937-0.027344 0.011719-0.058594 0.019531-0.085937 0.03125-0.070313 0.027344-0.14063 0.050781-0.21094 0.074219-0.027344 0.011718-0.054688 0.019531-0.082031 0.027344-0.074219 0.027343-0.15234 0.054687-0.22656 0.078124-0.019531 0.007813-0.039062 0.011719-0.058594 0.019532-0.19531 0.066406-0.38281 0.12891-0.5625 0.1875-1.0039 0.32031-1.7695 0.50781-1.8203 0.53516-0.12109 0.066406-1.8867 0.39062-5.3594 2.0234-0.36328 0.17187-0.6875 0.36328-0.98438 0.57031-0.007812 0.003906-0.015625 0.011719-0.023438 0.015625-0.082031 0.058594-0.16016 0.11719-0.23828 0.17969l-0.046875 0.035157c-0.074218 0.058593-0.14453 0.11719-0.21484 0.17969-0.015624 0.015625-0.03125 0.027344-0.050781 0.042969-0.066406 0.058594-0.13281 0.12109-0.19531 0.18359-0.015625 0.015625-0.027344 0.027343-0.042969 0.042969-0.0625 0.0625-0.125 0.12891-0.1875 0.19141-0.007812 0.011718-0.015625 0.019531-0.027344 0.027344-0.25391 0.28125-0.46875 0.56641-0.65234 0.85547-0.015624 0.023438-0.027343 0.042969-0.042968 0.066406-0.03125 0.050782-0.0625 0.10156-0.089844 0.15234-0.019531 0.035156-0.039062 0.070313-0.058594 0.10156-0.023437 0.042969-0.046875 0.085937-0.070312 0.13281-0.023438 0.042969-0.042969 0.085938-0.066406 0.125-0.019532 0.035157-0.035157 0.074219-0.054688 0.10938-0.023438 0.050782-0.046875 0.097656-0.066406 0.14844-0.011719 0.027344-0.027344 0.058594-0.039063 0.085937-0.027343 0.0625-0.050781 0.12109-0.074219 0.18359-0.007812 0.015625-0.011718 0.03125-0.019531 0.042969-0.058593 0.15234-0.11328 0.30469-0.15625 0.44531 0 0.003906-0.003906 0.007813-0.003906 0.011719l0.71484 0.375h0.003906c0.03125 0.015625 0.0625 0.035156 0.09375 0.050781 3.5234 1.8984 8.3398 4.1758 12.953 5.3477 4.5 1.1445 6.293 4.8438 6.9336 8.4414 2.4688 0.26562 4.1406 0.33984 4.2539 0.34375h0.011719s19.293-0.77344 25.219-7.5625v-5.7461c0.003906 0.007813-0.17578-3.5391-3.6484-5.1719zm-21.578 18.469l-0.011718-0.0625 0.027343 0.085938z"/>
 </g>
</svg>
