<?xml version="1.0" encoding="UTF-8"?>
<svg fill="#FF9700" width="100pt" height="100pt" version="1.1" viewBox="0 0 100 100" xmlns="http://www.w3.org/2000/svg">
 <path d="m99.059 44.078h-26.289v-3.6992c0.003907-0.77344 0.34766-1.5039 0.94141-2 2.3828-1.9219 4.9688-3.582 7.7109-4.9492 0.082031-0.042969 0.12891-0.12891 0.12891-0.21875v-2.5625c-0.36719-0.61328-0.62109-1.293-0.75-2-0.28906 0-0.66016-0.42188-1.0703-1.8594-0.55078-2 0-2.25 0.53125-2.1992-0.097657-0.26172-0.17188-0.53516-0.22266-0.80859-0.19531-0.85156-0.19531-1.7305 0-2.582 0.25-1 0.77344-1.9141 1.5117-2.6406 0.41406-0.4375 0.87891-0.82422 1.3906-1.1484 0.41406-0.29297 0.86719-0.52344 1.3477-0.69141 0.39844-0.13281 0.8125-0.21094 1.2305-0.23047 1.0742-0.11719 2.1562 0.11328 3.0898 0.65234 0.61719 0.32031 1.1367 0.80469 1.5 1.3984 0 0 2.5 0.17969 1.6484 5.25h0.003907c-0.054688 0.27734-0.125 0.54688-0.22266 0.8125 0.5 0 1.0898 0.23828 0.53125 2.1992-0.41016 1.4297-0.78125 1.8281-1.0703 1.8594-0.125 0.70703-0.37891 1.3828-0.75 2v2.5391c-0.003906 0.09375 0.046875 0.17969 0.12891 0.22266 2.7383 1.3672 5.3203 3.0273 7.6992 4.9492 0.59766 0.49219 0.94141 1.2266 0.94141 2zm0 35.121c0-0.77344-0.34375-1.5039-0.9375-2-2.3828-1.9219-4.9648-3.582-7.6992-4.9492-0.082031-0.042969-0.13281-0.12891-0.13281-0.21875v-2.582c0.37109-0.61328 0.625-1.293 0.75-2 0.28906 0 0.66016-0.42188 1.0703-1.8594 0.55078-2 0-2.25-0.53125-2.1992 0.097656-0.26562 0.17188-0.53516 0.22266-0.8125 0.83984-5.0703-1.6484-5.25-1.6484-5.25h-0.003906c-0.36328-0.59375-0.87891-1.0742-1.5-1.3984-0.93359-0.53906-2.0156-0.76563-3.0898-0.64844-0.41797 0.019531-0.83203 0.09375-1.2305 0.23047-0.47656 0.16406-0.93359 0.39453-1.3477 0.6875-0.51172 0.32422-0.97656 0.71094-1.3906 1.1523-0.76562 0.71484-1.3203 1.6328-1.5898 2.6484-0.19531 0.84766-0.19531 1.7305 0 2.5781 0.050781 0.27734 0.125 0.54688 0.21875 0.8125-0.5 0-1.0898 0.23828-0.53125 2.1992 0.41016 1.4297 0.78125 1.8281 1.0703 1.8594h0.003907c0.125 0.70703 0.37891 1.3828 0.75 2v2.5508c0 0.09375-0.050781 0.17969-0.13281 0.21875-2.7383 1.3672-5.3242 3.0273-7.707 4.9531-0.59766 0.49219-0.94141 1.2266-0.94141 2v3.6992h26.328zm-48.059-14.578c0.20312 0.82812 0.125 1.6992-0.21875 2.4805l-8.7031 19.668h-32.129l-8.6797-19.66c-0.34375-0.77734-0.42188-1.6523-0.21875-2.4805l3.8008-15.34c0.51953-2.082 1.5508-4.0039 3-5.5898 0.46094-0.51562 0.96484-0.99609 1.5078-1.4297 2.8789-2.2305 5.9414-4.207 9.1602-5.9102l3.7383 7h0.003907c0.039062 0.085937 0.16016 0.085937 0.19922 0 0.26953-0.82031 1.3203-3.6484 2.9102-3.4102 0.097656 0.023437 0.16016-0.097657 0.089844-0.16797-1.9297-1.4648-3.7578-3.0625-5.4609-4.7812v-2.4297c-0.49219-0.84375-0.83203-1.7695-1-2.7305-0.39062 0-0.89844-0.57812-1.4492-2.5312-0.76172-2.6719 0-3.0586 0.73047-3-0.12891-0.35547-0.22266-0.72656-0.29297-1.0977-0.26562-1.1602-0.26562-2.3633 0-3.5195 0.33984-1.3672 1.0508-2.6133 2.0508-3.6016 0.58594-0.60156 1.2422-1.125 1.9609-1.5586 0.56641-0.40234 1.1836-0.72266 1.8398-0.95312 0.54297-0.18359 1.1094-0.28906 1.6797-0.31641 1.4609-0.16016 2.9375 0.15234 4.2109 0.88672 0.82422 0.44531 1.5156 1.1055 2 1.9102 0 0 3.3984 0.23828 2.25 7.1484v0.003907c-0.066407 0.37109-0.16406 0.74219-0.28906 1.0977 0.67969-0.058594 1.4805 0.32812 0.73047 3-0.55078 2-1.0703 2.5-1.4609 2.5312-0.16797 0.94922-0.50781 1.8594-1 2.6914v2.4688c-1.6719 1.7227-3.4648 3.3281-5.3594 4.8008-0.074218 0.070313-0.011718 0.19141 0.089844 0.16797 1.5898-0.23047 2.6484 2.6016 2.9102 3.4102 0.039063 0.085938 0.16016 0.085938 0.19922 0l3.7383-7c3.2188 1.7031 6.2852 3.6797 9.1602 5.9102 0.54297 0.43359 1.0469 0.91406 1.5117 1.4297 1.4492 1.5859 2.4805 3.5078 3 5.5898zm-40-6.0703l-2.3594 7.4492 2.1484 8zm32.391 7.4492l-2.3906-7.4492 0.23828 15.449zm25.328-36.301h-8.457c-0.55469 0-1 0.44922-1 1v18.602h-5.5c-0.55469 0-1 0.44531-1 1v2c0 0.26562 0.10547 0.51953 0.29297 0.70703s0.44141 0.29297 0.70703 0.29297h5.5v18.602-0.003906c0 0.26562 0.10547 0.51953 0.29297 0.70703s0.44141 0.29297 0.70703 0.29297h8.4609-0.003906c0.26562 0 0.51953-0.10547 0.70703-0.29297s0.29297-0.44141 0.29297-0.70703v-2c0-0.26172-0.10547-0.51953-0.29297-0.70703s-0.44141-0.29297-0.70703-0.29297h-5.5v-35.309h5.5c0.26562 0 0.51953-0.10547 0.70703-0.29297s0.29297-0.44141 0.29297-0.70703v-2c-0.03125-0.52734-0.46875-0.94141-1-0.94141z"/>
</svg>
