<?xml version="1.0" encoding="UTF-8"?>
<svg fill="#FF9700" width="100pt" height="100pt" version="1.1" viewBox="0 0 100 100" xmlns="http://www.w3.org/2000/svg">
 <g>
  <path d="m40.566 55.941c0 0.69531 0.27734 1.3633 0.76953 1.8555 0.49219 0.49219 1.1602 0.76953 1.8594 0.76953h35.91c0.69531 0 1.3633-0.27734 1.8555-0.76953 0.49609-0.49219 0.76953-1.1602 0.76953-1.8555v-2.625l5.7383-19.125c0.23828-0.79688 0.085938-1.6562-0.40625-2.3203-0.49609-0.66797-1.2773-1.0586-2.1094-1.0586h-27.148c-1.1602 0-2.1797 0.75781-2.5156 1.8711l-6.1875 20.633h-5.9062c-0.69922 0-1.3672 0.27344-1.8594 0.76953-0.49219 0.49219-0.76953 1.1602-0.76953 1.8555zm28.445-15.305c2.9688 0 5.375 1.2344 5.375 2.7539s-2.4062 2.7539-5.375 2.7539-5.375-1.2344-5.375-2.7539 2.4062-2.7539 5.375-2.7539z"/>
  <path d="m32.023 58.574h5.6797c-1.1836-2.4375-0.60156-5.3672 1.4219-7.1719h-6.8906c-1.3828 0-2.707-0.54688-3.6836-1.5234-0.97656-0.97656-1.5273-2.3008-1.5273-3.6836v-7.5859c0-0.96094 0.77734-1.7383 1.7383-1.7383 0.95703 0 1.7344 0.77734 1.7344 1.7383v7.5859c0.003906 0.95703 0.77734 1.7344 1.7383 1.7383h11.805v-14.324c0-3.8359-3.1094-6.9453-6.9453-6.9453h-10.277c-3.8359 0-6.9453 3.1094-6.9453 6.9453v12.812c0 3.2227 1.2812 6.3125 3.5586 8.5938 2.2812 2.2773 5.3711 3.5586 8.5938 3.5586z"/>
  <path d="m31.973 21.797c5.1719 0.91016 10.52-4.9023 11.43-10.07 0.91406-5.1719-2.6406-9.5312-7.8125-10.445-5.1719-0.91016-10 1.9727-10.914 7.1406-0.91016 5.1719 2.1289 12.465 7.2969 13.375z"/>
  <path d="m58.781 8.6836c7.3945 1.8789 15.145 1.8789 22.543 0 0.26953-0.070313 0.49219-0.26562 0.59375-0.53125 0.10547-0.26172 0.074219-0.55859-0.082031-0.79297l-4.0469-6.2539h-15.473l-4.0508 6.2539c-0.15234 0.23438-0.18359 0.53125-0.082031 0.79297 0.10156 0.26562 0.32422 0.46094 0.59766 0.53125z"/>
  <path d="m75.555 12.973c-1.8281 0.20312-3.6719 0.30859-5.5117 0.3125-1.8359-0.003906-3.668-0.10938-5.4922-0.3125 0.40625 2.7266 2.7461 4.7422 5.5 4.7422 2.7578 0 5.0977-2.0156 5.5039-4.7422z"/>
  <path d="m68.211 20.242v3.9414c0 1.0117 0.82031 1.8281 1.8281 1.8281h0.007813c1.0078 0 1.8281-0.81641 1.8281-1.8281v-3.9414c-1.2031 0.29297-2.4609 0.29297-3.6641 0z"/>
  <path d="m80.754 21.109 0.007813-0.011719c0.59375-0.81641 0.41406-1.957-0.39844-2.5547l-3.1055-2.2734c-0.625 1.082-1.4805 2.0156-2.5078 2.7305l3.4492 2.5117h-0.003907c0.39453 0.28516 0.88281 0.40234 1.3633 0.32812 0.47656-0.074219 0.90625-0.33984 1.1953-0.73047z"/>
  <path d="m62.828 16.289-3.0938 2.2617v-0.003906c-0.39453 0.28516-0.66016 0.71875-0.73438 1.1992-0.078125 0.48047 0.042969 0.97266 0.32812 1.3633 0.28906 0.39453 0.72266 0.65625 1.2031 0.73047 0.48047 0.074218 0.97266-0.050782 1.3633-0.33984l3.4414-2.5195c-1.0234-0.70312-1.8828-1.6211-2.5078-2.6914z"/>
  <path d="m87.031 62.062h-74.062c-2.2422 0.003906-4.0586 1.8242-4.0586 4.0664 0 2.2422 1.8164 4.0625 4.0586 4.0664h5.918v26.332c0 1.3047 1.0586 2.3672 2.3672 2.3672h6.2891c1.3047 0 2.3672-1.0625 2.3672-2.3672v-4.7852h37.477v4.7852h-0.003907c0 1.3047 1.0625 2.3672 2.3672 2.3672h8.9961c0.62891 0 1.2305-0.25 1.6719-0.69531 0.44531-0.44141 0.69531-1.0469 0.69531-1.6719v-26.332h5.918c1.0781 0 2.1133-0.42578 2.8789-1.1914 0.76172-0.76172 1.1914-1.7969 1.1914-2.875s-0.42969-2.1133-1.1914-2.875c-0.76562-0.76562-1.8008-1.1914-2.8789-1.1914z"/>
 </g>
</svg>
